<?xml version="1.0" encoding="UTF-8"?>
<svg id="Capa_1" data-name="Capa 1" xmlns="http://www.w3.org/2000/svg" xmlns:xlink="http://www.w3.org/1999/xlink" viewBox="0 0 800 800">
  <defs>
    <style>
      .cls-1 {
        letter-spacing: -.01em;
      }

      .cls-2 {
        letter-spacing: 0em;
      }

      .cls-3, .cls-4, .cls-5 {
        fill: #fff;
      }

      .cls-6 {
        letter-spacing: 0em;
      }

      .cls-7 {
        letter-spacing: .02em;
      }

      .cls-4 {
        font-size: 54.05px;
      }

      .cls-4, .cls-5 {
        font-family: Gotham-Bold, Gotham;
        font-weight: 700;
      }

      .cls-5 {
        font-size: 131.16px;
      }

      .cls-8 {
        letter-spacing: 0em;
      }

      .cls-9 {
        letter-spacing: .02em;
      }

      .cls-10 {
        fill: url(#Degradado_sin_nombre_996);
      }
    </style>
    <radialGradient id="Degradado_sin_nombre_996" data-name="Degradado sin nombre 996" cx="412.61" cy="400.94" fx="412.61" fy="400.94" r="577.1" gradientTransform="translate(-3.93 -.68)" gradientUnits="userSpaceOnUse">
      <stop offset="0" stop-color="#34b9c8"/>
      <stop offset=".02" stop-color="#26b9c3"/>
      <stop offset=".06" stop-color="#18b9bd"/>
      <stop offset=".1" stop-color="#10b9ba"/>
      <stop offset=".17" stop-color="#0ebaba"/>
      <stop offset=".19" stop-color="#0eb7b9"/>
      <stop offset=".43" stop-color="#0e9fb3"/>
      <stop offset=".57" stop-color="#0f97b1"/>
      <stop offset=".68" stop-color="#0e86aa"/>
      <stop offset=".86" stop-color="#0d72a2"/>
      <stop offset=".98" stop-color="#0d6b9f"/>
    </radialGradient>
  </defs>
  <rect id="Fondo" class="cls-10" width="800" height="800"/>
  <g>
    <g id="Sarom-Text">
      <text class="cls-4" transform="translate(146.52 647.3)"><tspan class="cls-6" x="0" y="0">C</tspan><tspan class="cls-7" x="39.89" y="0">ON</tspan><tspan class="cls-8" x="130.69" y="0">S</tspan><tspan class="cls-9" x="165.55" y="0">TRUCTIONS</tspan></text>
      <text class="cls-5" transform="translate(147.74 598.81)"><tspan class="cls-1" x="0" y="0">S</tspan><tspan class="cls-2" x="81.97" y="0">AROM</tspan></text>
    </g>
    <g id="Sarom-Logo">
      <path id="Base_de_la_S" data-name="Base de la S" class="cls-3" d="M236.03,415.74c.05,21.72.1,43.44.15,65.16,7.16,1.42,16.2,3.06,26.72,4.6,14.23,2.09,25.06,3.1,31.76,3.71,10.29.94,23.02,1.87,37.7,2.37,12.43.62,25.62.91,39.48.74,14.15-.18,27.58-.82,40.22-1.78,9.17-.99,22.74-3.76,36.96-11.87,5.97-3.41,16.5-9.57,25.68-21.82,8.09-10.8,11.16-21.04,12.76-26.57,3.42-11.8,3.57-21.46,3.71-30.43.11-6.82.2-13.28-1.19-21.52-1.25-7.4-4.1-23.14-16.18-38.44-2.05-2.6-10.77-13.3-25.68-21.08-6.21-3.24-11.62-5-15.44-6.23-4.11-1.33-10.75-3.24-25.97-5.49-3.02-.45-11.46-1.66-26.12-2.97-9.36-.84-16.59-1.3-33.99-2.82-4.65-.41-12.07-1.09-21.23-3.71-6.85-1.96-10.78-3.89-14.25-6.98-3.38-3.02-5.38-6.31-6.53-8.61-23.15-.1-46.3-.2-69.44-.3-.16,2.48-.21,5.85.24,9.8.16,1.46.74,6.39,3.15,13.21,1.43,4.03,4.34,12.08,10.98,20.93,1.22,1.62,7.08,9.3,17.37,16.62,9.48,6.76,17.98,9.84,23.3,11.73,5.99,2.12,11.66,3.29,23.01,5.64,7.31,1.51,14.14,2.92,23.15,4.09,7.62.99,6.81.5,29.54,2.29,1.53.12-.37-.03,25.83,2.97,4.16.48,8.14.93,13.06,2.97,3.05,1.27,7.92,3.28,12.02,7.87,8.87,9.92,6.73,23.59,6.09,26.87-.44,2.26-1.23,6.03-4.01,9.94-.63.89-3.21,4.38-8.46,7.27-6.79,3.74-13.47,3.95-16.33,4.01-9.05.19-34.96.56-70.36.15-18.08-1.22-37.45-3.34-57.89-6.68-10.34-1.69-20.29-3.59-29.83-5.64Z"/>
      <g id="Gancho_Superior" data-name="Gancho Superior">
        <line class="cls-3" x1="378.64" y1="136.65" x2="585.84" y2="262.07"/>
        <path class="cls-3" d="M378.64,136.65l-100.78,56.85c-6.42,3.49-20.19,12.1-30.54,29.02-10.1,16.5-11.65,32.26-11.91,39.56h70.95c2.18-8.22,6.03-13,8.5-15.51,2.65-2.69,5.56-4.5,11.28-8.02,6.81-4.19,12.16-6.83,12.47-6.98,6.48-3.19,17.99-9.45,40.04-22.71,3.18,1.87,22.45,13.19,36.85,21.97,8.77,5.35,3.45,2.27,13.21,8.31,7.19,4.45,8.53,5.17,10.39,6.98,2.66,2.59,6.27,7.3,7.98,15.96h138.78l-207.21-125.42Z"/>
        <polyline class="cls-3" points="525.47 327.38 525.47 262.07 517.29 262.07 517.29 327.38"/>
        <path class="cls-3" d="M525.47,327.38h8.89c.2.08.76.34,1.15.97.32.51.35,1.01.36,1.24.01,5.18.03,10.37.04,15.55-2.97,2.72-5.94,5.45-8.91,8.17.02,2.96.04,5.92.06,8.88-.51.5-1.02.99-1.53,1.49-2.7.01-5.41.03-8.11.04-.52-.51-1.05-1.02-1.57-1.53v-8.88c-2.98-2.72-5.95-5.45-8.93-8.17-.24-8.15-.21-14.15.02-15.55.05-.28.16-.95.69-1.49.5-.51,1.15-.66,1.55-.72h16.27Z"/>
      </g>
    </g>
  </g>
</svg>