<?xml version="1.0" encoding="UTF-8"?>
<svg id="Capa_1" data-name="Capa 1" xmlns="http://www.w3.org/2000/svg" xmlns:xlink="http://www.w3.org/1999/xlink" viewBox="0 0 800 800">
  <defs>
    <style>
      .cls-1 {
        fill: #fff;
      }

      .cls-2 {
        fill: url(#Degradado_sin_nombre_996);
      }
    </style>
    <radialGradient id="Degradado_sin_nombre_996" data-name="Degradado sin nombre 996" cx="412.61" cy="400.94" fx="412.61" fy="400.94" r="577.1" gradientTransform="translate(-3.93 -.68)" gradientUnits="userSpaceOnUse">
      <stop offset="0" stop-color="#34b9c8"/>
      <stop offset=".02" stop-color="#26b9c3"/>
      <stop offset=".06" stop-color="#18b9bd"/>
      <stop offset=".1" stop-color="#10b9ba"/>
      <stop offset=".17" stop-color="#0ebaba"/>
      <stop offset=".19" stop-color="#0eb7b9"/>
      <stop offset=".43" stop-color="#0e9fb3"/>
      <stop offset=".57" stop-color="#0f97b1"/>
      <stop offset=".68" stop-color="#0e86aa"/>
      <stop offset=".86" stop-color="#0d72a2"/>
      <stop offset=".98" stop-color="#0d6b9f"/>
    </radialGradient>
  </defs>
  <rect id="Fondo" class="cls-2" width="800" height="800"/>
  <g id="Sarom-Text">
    <g>
      <path class="cls-1" d="M110.73,673.7v-.12c0-12.46,9.39-22.66,22.85-22.66,8.26,0,13.21,2.75,17.28,6.76l-6.13,7.07c-3.38-3.07-6.82-4.94-11.2-4.94-7.39,0-12.71,6.13-12.71,13.64v.12c0,7.51,5.2,13.77,12.71,13.77,5.01,0,8.07-2,11.52-5.13l6.13,6.2c-4.51,4.82-9.51,7.82-17.96,7.82-12.89,0-22.47-9.95-22.47-22.53Z"/>
      <path class="cls-1" d="M156.92,673.7v-.12c0-12.46,9.83-22.66,23.35-22.66s23.22,10.08,23.22,22.53v.12c0,12.46-9.83,22.66-23.35,22.66s-23.22-10.08-23.22-22.53ZM193.41,673.7v-.12c0-7.51-5.51-13.77-13.27-13.77s-13.14,6.13-13.14,13.64v.12c0,7.51,5.51,13.77,13.27,13.77s13.14-6.13,13.14-13.65Z"/>
      <path class="cls-1" d="M213.32,651.67h8.89l20.53,26.98v-26.98h9.51v43.81h-8.2l-21.22-27.85v27.85h-9.51v-43.81Z"/>
      <path class="cls-1" d="M261.01,689.1l5.7-6.82c3.94,3.25,8.07,5.32,13.08,5.32,3.94,0,6.32-1.56,6.32-4.13v-.12c0-2.44-1.5-3.69-8.83-5.57-8.83-2.25-14.52-4.69-14.52-13.39v-.12c0-7.95,6.38-13.21,15.33-13.21,6.38,0,11.83,2,16.27,5.57l-5.01,7.26c-3.88-2.69-7.7-4.32-11.39-4.32s-5.63,1.69-5.63,3.82v.12c0,2.88,1.88,3.82,9.45,5.76,8.89,2.32,13.9,5.51,13.9,13.14v.13c0,8.7-6.63,13.58-16.09,13.58-6.63,0-13.33-2.32-18.59-7.01Z"/>
      <path class="cls-1" d="M314.59,660.56h-13.33v-8.89h36.3v8.89h-13.33v34.93h-9.64v-34.93Z"/>
      <path class="cls-1" d="M346.2,651.67h20.03c5.57,0,9.89,1.57,12.77,4.44,2.44,2.44,3.76,5.88,3.76,10.01v.12c0,7.07-3.82,11.52-9.39,13.58l10.7,15.65h-11.27l-9.39-14.02h-7.57v14.02h-9.64v-43.81ZM365.6,672.95c4.69,0,7.39-2.5,7.39-6.2v-.12c0-4.13-2.88-6.26-7.57-6.26h-9.58v12.58h9.76Z"/>
      <path class="cls-1" d="M392.01,676.71v-25.04h9.64v24.79c0,7.14,3.57,10.83,9.45,10.83s9.45-3.57,9.45-10.52v-25.1h9.64v24.72c0,13.27-7.45,19.78-19.22,19.78s-18.96-6.57-18.96-19.47Z"/>
      <path class="cls-1" d="M439.33,673.7v-.12c0-12.46,9.39-22.66,22.85-22.66,8.26,0,13.21,2.75,17.28,6.76l-6.13,7.07c-3.38-3.07-6.82-4.94-11.2-4.94-7.39,0-12.71,6.13-12.71,13.64v.12c0,7.51,5.2,13.77,12.71,13.77,5.01,0,8.07-2,11.52-5.13l6.13,6.2c-4.51,4.82-9.51,7.82-17.96,7.82-12.89,0-22.47-9.95-22.47-22.53Z"/>
      <path class="cls-1" d="M498.92,660.56h-13.33v-8.89h36.3v8.89h-13.33v34.93h-9.64v-34.93Z"/>
      <path class="cls-1" d="M530.96,651.67h9.64v43.81h-9.64v-43.81Z"/>
      <path class="cls-1" d="M550.87,673.7v-.12c0-12.46,9.83-22.66,23.35-22.66s23.22,10.08,23.22,22.53v.12c0,12.46-9.83,22.66-23.35,22.66s-23.22-10.08-23.22-22.53ZM587.36,673.7v-.12c0-7.51-5.51-13.77-13.27-13.77s-13.14,6.13-13.14,13.64v.12c0,7.51,5.51,13.77,13.27,13.77s13.14-6.13,13.14-13.65Z"/>
      <path class="cls-1" d="M607.26,651.67h8.89l20.53,26.98v-26.98h9.51v43.81h-8.2l-21.22-27.85v27.85h-9.51v-43.81Z"/>
      <path class="cls-1" d="M654.95,689.1l5.7-6.82c3.94,3.25,8.07,5.32,13.08,5.32,3.94,0,6.32-1.56,6.32-4.13v-.12c0-2.44-1.5-3.69-8.83-5.57-8.83-2.25-14.52-4.69-14.52-13.39v-.12c0-7.95,6.38-13.21,15.33-13.21,6.38,0,11.83,2,16.27,5.57l-5.01,7.26c-3.88-2.69-7.7-4.32-11.39-4.32s-5.63,1.69-5.63,3.82v.12c0,2.88,1.88,3.82,9.45,5.76,8.89,2.32,13.89,5.51,13.89,13.14v.13c0,8.7-6.63,13.58-16.09,13.58-6.63,0-13.33-2.32-18.59-7.01Z"/>
    </g>
    <g>
      <path class="cls-1" d="M114.29,623.84l13.82-16.56c9.57,7.9,19.59,12.91,31.74,12.91,9.57,0,15.34-3.8,15.34-10.02v-.3c0-5.92-3.65-8.96-21.42-13.52-21.42-5.47-35.24-11.39-35.24-32.5v-.3c0-19.29,15.49-32.05,37.21-32.05,15.49,0,28.71,4.86,39.49,13.52l-12.15,17.62c-9.42-6.53-18.68-10.48-27.64-10.48s-13.67,4.1-13.67,9.26v.3c0,6.99,4.56,9.26,22.93,13.97,21.57,5.62,33.72,13.37,33.72,31.9v.3c0,21.11-16.1,32.96-39.03,32.96-16.1,0-32.35-5.62-45.11-17.01Z"/>
      <path class="cls-1" d="M252.96,532.25h21.57l45.57,107.08h-24.45l-9.72-23.85h-44.96l-9.72,23.85h-23.85l45.57-107.08ZM277.57,594.83l-14.12-34.48-14.13,34.48h28.25Z"/>
      <path class="cls-1" d="M336.5,533.01h48.6c13.52,0,24,3.8,30.99,10.78,5.92,5.92,9.11,14.28,9.11,24.3v.3c0,17.16-9.26,27.95-22.78,32.96l25.97,37.97h-27.34l-22.78-34.02h-18.38v34.02h-23.39v-106.32ZM383.59,584.66c11.39,0,17.92-6.08,17.92-15.04v-.3c0-10.02-6.99-15.19-18.38-15.19h-23.24v30.53h23.69Z"/>
      <path class="cls-1" d="M441.61,586.48v-.3c0-30.23,23.85-54.98,56.65-54.98s56.35,24.45,56.35,54.68v.3c0,30.23-23.85,54.98-56.65,54.98s-56.35-24.45-56.35-54.68ZM530.16,586.48v-.3c0-18.23-13.37-33.42-32.2-33.42s-31.9,14.88-31.9,33.11v.3c0,18.23,13.37,33.42,32.2,33.42s31.9-14.88,31.9-33.11Z"/>
      <path class="cls-1" d="M575.42,533.01h25.21l27.95,44.96,27.95-44.96h25.21v106.32h-23.24v-69.41l-29.92,45.41h-.61l-29.62-44.96v68.96h-22.93v-106.32Z"/>
    </g>
  </g>
  <g id="Sarom-Logo">
    <path id="Base_de_la_S" data-name="Base de la S" class="cls-1" d="M211.07,427.33c.06,25.15.11,50.31.17,75.46,8.29,1.64,18.76,3.54,30.94,5.33,16.48,2.42,29.02,3.58,36.78,4.3,11.92,1.09,26.66,2.16,43.66,2.75,14.4.72,29.67,1.06,45.72.86,16.39-.2,31.94-.95,46.58-2.06,10.61-1.15,26.34-4.35,42.8-13.75,6.92-3.95,19.11-11.08,29.74-25.27,9.37-12.51,12.93-24.37,14.78-30.77,3.96-13.66,4.14-24.85,4.3-35.24.12-7.9.24-15.38-1.38-24.92-1.45-8.57-4.75-26.8-18.74-44.52-2.37-3.01-12.47-15.4-29.74-24.41-7.19-3.75-13.46-5.78-17.88-7.22-4.76-1.54-12.45-3.76-30.08-6.36-3.49-.52-13.27-1.92-30.25-3.44-10.84-.97-19.21-1.51-39.36-3.27-5.39-.47-13.97-1.26-24.58-4.3-7.93-2.27-12.49-4.5-16.5-8.08-3.92-3.49-6.23-7.31-7.56-9.97-26.81-.11-53.61-.23-80.42-.34-.18,2.87-.24,6.77.28,11.34.19,1.69.86,7.39,3.65,15.3,1.65,4.67,5.03,13.99,12.72,24.24,1.41,1.87,8.2,10.77,20.11,19.25,10.98,7.83,20.83,11.4,26.99,13.58,6.93,2.46,13.5,3.82,26.64,6.53,8.47,1.75,16.38,3.39,26.81,4.74,8.83,1.14,7.89.58,34.21,2.65,1.77.14-.42-.03,29.91,3.44,4.81.55,9.43,1.08,15.13,3.44,3.53,1.47,9.18,3.8,13.92,9.11,10.28,11.49,7.79,27.31,7.05,31.11-.52,2.62-1.42,6.98-4.64,11.52-.73,1.03-3.72,5.07-9.8,8.42-7.86,4.33-15.6,4.57-18.91,4.64-10.48.21-40.48.65-81.48.17-20.94-1.42-43.37-3.86-67.04-7.74-11.97-1.96-23.49-4.16-34.55-6.53Z"/>
    <g id="Gancho_Superior" data-name="Gancho Superior">
      <line class="cls-1" x1="376.22" y1="104.13" x2="616.18" y2="249.37"/>
      <path class="cls-1" d="M376.22,104.12l-116.71,65.83c-7.43,4.04-23.38,14.02-35.37,33.6-11.69,19.11-13.49,37.36-13.79,45.81h82.16c2.53-9.52,6.98-15.06,9.84-17.96,3.07-3.11,6.44-5.21,13.06-9.28,7.89-4.85,14.09-7.91,14.44-8.08,7.5-3.7,20.83-10.94,46.37-26.3,3.68,2.16,26,15.27,42.67,25.44,10.15,6.19,4,2.63,15.3,9.63,8.33,5.16,9.88,5.99,12.03,8.08,3.08,2.99,7.26,8.46,9.24,18.48h160.72l-239.96-145.25Z"/>
      <polyline class="cls-1" points="546.26 325 546.26 249.37 536.79 249.37 536.79 325"/>
      <path class="cls-1" d="M546.26,325h10.3c.23.09.89.4,1.33,1.13.37.6.41,1.17.41,1.43.02,6,.03,12,.05,18.01-3.44,3.15-6.88,6.31-10.31,9.46.02,3.43.05,6.86.07,10.29-.59.57-1.18,1.15-1.77,1.72-3.13.02-6.26.03-9.39.05-.61-.59-1.21-1.18-1.82-1.77v-10.29c-3.45-3.15-6.89-6.31-10.34-9.46-.28-9.44-.25-16.39.02-18.01.05-.32.19-1.1.8-1.72.58-.59,1.33-.77,1.8-.84h18.85Z"/>
    </g>
  </g>
</svg>