<?xml version="1.0" encoding="UTF-8"?>
<svg id="Capa_1" data-name="Capa 1" xmlns="http://www.w3.org/2000/svg" xmlns:xlink="http://www.w3.org/1999/xlink" viewBox="0 0 1920 1080">
  <defs>
    <style>
      .cls-1 {
        fill: #fff;
      }

      .cls-2 {
        fill: url(#Degradado_sin_nombre_8);
      }
    </style>
    <radialGradient id="Degradado_sin_nombre_8" data-name="Degradado sin nombre 8" cx="923" cy="543.55" fx="923" fy="543.55" r="149.17" gradientTransform="translate(-10564.55 -3103.7) scale(12 6.75)" gradientUnits="userSpaceOnUse">
      <stop offset=".1" stop-color="#0ebaba"/>
      <stop offset=".26" stop-color="#0eb0b7"/>
      <stop offset=".52" stop-color="#0f97b1"/>
      <stop offset=".62" stop-color="#0e90ae"/>
      <stop offset=".75" stop-color="#0d7fa7"/>
      <stop offset=".87" stop-color="#0d6b9f"/>
    </radialGradient>
  </defs>
  <rect id="Fondo" class="cls-2" width="1920" height="1080"/>
  <g id="Sarom_Construcciones" data-name="Sarom Construcciones">
    <g>
      <path class="cls-1" d="M864.16,632.9v-.15c0-14.63,14.6-26.61,35.52-26.61,12.84,0,20.53,3.23,26.86,7.94l-9.54,8.31c-5.25-3.6-10.61-5.81-17.42-5.81-11.48,0-19.75,7.2-19.75,16.02v.15c0,8.82,8.08,16.17,19.75,16.17,7.78,0,12.55-2.35,17.9-6.03l9.54,7.28c-7.01,5.66-14.79,9.19-27.93,9.19-20.04,0-34.93-11.69-34.93-26.46Z"/>
      <path class="cls-1" d="M935.97,632.9v-.15c0-14.63,15.28-26.61,36.3-26.61s36.1,11.83,36.1,26.46v.15c0,14.63-15.28,26.61-36.29,26.61s-36.1-11.83-36.1-26.46ZM992.7,632.9v-.15c0-8.82-8.56-16.17-20.63-16.17s-20.43,7.2-20.43,16.02v.15c0,8.82,8.56,16.17,20.63,16.17s20.43-7.2,20.43-16.02Z"/>
      <path class="cls-1" d="M1023.65,607.03h13.82l31.92,31.68v-31.68h14.79v51.45h-12.75l-32.99-32.71v32.71h-14.79v-51.45Z"/>
      <path class="cls-1" d="M1097.79,650.98l8.86-8.01c6.13,3.82,12.55,6.25,20.34,6.25,6.13,0,9.83-1.84,9.83-4.85v-.15c0-2.87-2.33-4.34-13.72-6.54-13.72-2.65-22.58-5.51-22.58-15.73v-.15c0-9.33,9.93-15.51,23.84-15.51,9.92,0,18.39,2.35,25.3,6.54l-7.79,8.53c-6.03-3.16-11.97-5.07-17.71-5.07s-8.76,1.98-8.76,4.48v.15c0,3.38,2.92,4.48,14.69,6.76,13.82,2.72,21.6,6.47,21.6,15.43v.15c0,10.22-10.31,15.95-25.01,15.95-10.31,0-20.73-2.72-28.9-8.23Z"/>
      <path class="cls-1" d="M1181.09,617.47h-20.73v-10.44h56.44v10.44h-20.73v41.01h-14.99v-41.01Z"/>
      <path class="cls-1" d="M1230.23,607.03h31.14c8.66,0,15.37,1.84,19.85,5.22,3.79,2.87,5.84,6.91,5.84,11.76v.15c0,8.31-5.94,13.52-14.6,15.95l16.64,18.38h-17.51l-14.6-16.46h-11.77v16.46h-14.98v-51.45ZM1260.4,632.02c7.3,0,11.48-2.94,11.48-7.28v-.15c0-4.85-4.48-7.35-11.77-7.35h-14.89v14.77h15.18Z"/>
      <path class="cls-1" d="M1301.46,636.43v-29.4h14.98v29.11c0,8.38,5.55,12.72,14.69,12.72s14.69-4.19,14.69-12.35v-29.47h14.99v29.03c0,15.58-11.58,23.23-29.87,23.23s-29.48-7.72-29.48-22.86Z"/>
      <path class="cls-1" d="M1375.03,632.9v-.15c0-14.63,14.6-26.61,35.52-26.61,12.84,0,20.53,3.23,26.86,7.94l-9.54,8.31c-5.25-3.6-10.61-5.81-17.42-5.81-11.48,0-19.75,7.2-19.75,16.02v.15c0,8.82,8.08,16.17,19.75,16.17,7.78,0,12.55-2.35,17.9-6.03l9.54,7.28c-7.01,5.66-14.79,9.19-27.93,9.19-20.04,0-34.93-11.69-34.93-26.46Z"/>
      <path class="cls-1" d="M1467.66,617.47h-20.73v-10.44h56.44v10.44h-20.73v41.01h-14.99v-41.01Z"/>
      <path class="cls-1" d="M1517.48,607.03h14.99v51.45h-14.99v-51.45Z"/>
      <path class="cls-1" d="M1548.43,632.9v-.15c0-14.63,15.28-26.61,36.29-26.61s36.1,11.83,36.1,26.46v.15c0,14.63-15.28,26.61-36.29,26.61s-36.1-11.83-36.1-26.46ZM1605.16,632.9v-.15c0-8.82-8.56-16.17-20.63-16.17s-20.43,7.2-20.43,16.02v.15c0,8.82,8.56,16.17,20.63,16.17s20.43-7.2,20.43-16.02Z"/>
      <path class="cls-1" d="M1636.1,607.03h13.82l31.92,31.68v-31.68h14.79v51.45h-12.75l-32.99-32.71v32.71h-14.79v-51.45Z"/>
      <path class="cls-1" d="M1710.25,650.98l8.85-8.01c6.13,3.82,12.55,6.25,20.34,6.25,6.13,0,9.83-1.84,9.83-4.85v-.15c0-2.87-2.33-4.34-13.72-6.54-13.72-2.65-22.58-5.51-22.58-15.73v-.15c0-9.33,9.92-15.51,23.84-15.51,9.92,0,18.39,2.35,25.3,6.54l-7.79,8.53c-6.03-3.16-11.97-5.07-17.71-5.07s-8.76,1.98-8.76,4.48v.15c0,3.38,2.92,4.48,14.69,6.76,13.82,2.72,21.6,6.47,21.6,15.43v.15c0,10.22-10.31,15.95-25.01,15.95-10.31,0-20.73-2.72-28.9-8.23Z"/>
    </g>
    <g>
      <path class="cls-1" d="M855.98,563l22.27-20.15c15.42,9.61,31.57,15.71,51.14,15.71,15.42,0,24.71-4.62,24.71-12.2v-.37c0-7.21-5.87-10.9-34.5-16.45-34.5-6.65-56.77-13.86-56.77-39.55v-.37c0-23.47,24.96-39,59.95-39,24.96,0,46.25,5.91,63.62,16.45l-19.58,21.44c-15.17-7.95-30.1-12.75-44.54-12.75s-22.02,4.99-22.02,11.27v.37c0,8.5,7.34,11.27,36.95,17,34.75,6.84,54.33,16.27,54.33,38.81v.37c0,25.69-25.94,40.11-62.89,40.11-25.94,0-52.12-6.84-72.68-20.7Z"/>
      <path class="cls-1" d="M1079.4,451.55h34.75l73.41,130.31h-39.4l-15.66-29.02h-72.43l-15.66,29.02h-38.42l73.41-130.31ZM1119.04,527.7l-22.76-41.96-22.76,41.96h45.51Z"/>
      <path class="cls-1" d="M1214,452.48h78.31c21.78,0,38.66,4.62,49.92,13.12,9.54,7.21,14.68,17.37,14.68,29.57v.37c0,20.89-14.93,34.01-36.71,40.11l41.84,46.21h-44.05l-36.71-41.4h-29.61v41.4h-37.68v-129.38ZM1289.85,515.32c18.35,0,28.88-7.39,28.88-18.3v-.37c0-12.2-11.26-18.48-29.61-18.48h-37.44v37.15h38.17Z"/>
      <path class="cls-1" d="M1383.33,517.54v-.37c0-36.78,38.42-66.91,91.27-66.91s90.79,29.76,90.79,66.54v.37c0,36.78-38.42,66.91-91.28,66.91s-90.79-29.76-90.79-66.54ZM1526,517.54v-.37c0-22.18-21.53-40.66-51.88-40.66s-51.39,18.11-51.39,40.29v.37c0,22.18,21.53,40.66,51.88,40.66s51.39-18.11,51.39-40.29Z"/>
      <path class="cls-1" d="M1598.92,452.48h40.62l45.03,54.71,45.03-54.71h40.62v129.38h-37.44v-84.47l-48.21,55.26h-.98l-47.72-54.71v83.91h-36.95v-129.38Z"/>
    </g>
  </g>
  <g id="Sarom-Logo">
    <path id="Base_de_la_S" data-name="Base de la S" class="cls-1" d="M159.55,745.1c.08,41.74.17,83.48.25,125.22,12.28,2.73,27.79,5.88,45.82,8.84,24.41,4.01,42.97,5.95,54.47,7.13,17.64,1.81,39.47,3.59,64.65,4.56,21.32,1.2,43.93,1.76,67.71,1.43,24.27-.34,47.3-1.57,68.98-3.42,15.72-1.9,39.01-7.22,63.38-22.82,10.24-6.56,28.3-18.39,44.04-41.93,13.87-20.75,19.14-40.44,21.89-51.06,5.87-22.67,6.13-41.25,6.36-58.47.18-13.11.35-25.53-2.04-41.36-2.14-14.22-7.04-44.47-27.75-73.88-3.52-4.99-18.47-25.55-44.04-40.5-10.65-6.23-19.93-9.6-26.47-11.98-7.05-2.56-18.44-6.23-44.55-10.55-5.17-.86-19.65-3.18-44.8-5.7-16.05-1.61-28.45-2.5-58.29-5.42-7.98-.78-20.69-2.1-36.4-7.13-11.74-3.76-18.49-7.47-24.44-13.41-5.8-5.8-9.23-12.12-11.2-16.54-39.7-.19-79.39-.38-119.09-.57-.27,4.76-.35,11.23.41,18.83.28,2.8,1.27,12.27,5.41,25.39,2.44,7.75,7.44,23.21,18.84,40.22,2.08,3.11,12.15,17.87,29.78,31.95,16.27,12.99,30.84,18.91,39.96,22.53,10.27,4.08,20,6.33,39.45,10.84,12.54,2.9,24.26,5.62,39.71,7.86,13.08,1.9,11.68.97,50.65,4.41,2.62.23-.63-.05,44.29,5.7,7.13.91,13.96,1.79,22.4,5.7,5.23,2.43,13.59,6.31,20.62,15.12,15.22,19.07,11.54,45.33,10.44,51.63-.76,4.35-2.1,11.58-6.87,19.11-1.09,1.71-5.5,8.42-14.51,13.98-11.65,7.19-23.1,7.59-28,7.7-15.51.36-59.95,1.08-120.66.29-31.01-2.35-64.23-6.41-99.27-12.84-17.73-3.25-34.79-6.9-51.16-10.84Z"/>
    <g id="Gancho_Superior" data-name="Gancho Superior">
      <line class="cls-1" x1="404.11" y1="208.75" x2="759.45" y2="449.78"/>
      <path class="cls-1" d="M404.11,208.75l-172.84,109.25c-11.01,6.71-34.62,23.26-52.37,55.77-17.31,31.71-19.97,61.99-20.43,76.02h121.67c3.74-15.8,10.33-24.99,14.57-29.81,4.55-5.17,9.54-8.65,19.35-15.4,11.68-8.05,20.86-13.12,21.38-13.41,11.11-6.14,30.85-18.16,68.66-43.64,5.46,3.59,38.5,25.34,63.19,42.22,15.04,10.28,5.92,4.36,22.65,15.97,12.33,8.56,14.63,9.94,17.82,13.41,4.56,4.97,10.76,14.04,13.68,30.66h238l-355.35-241.03Z"/>
      <polyline class="cls-1" points="655.92 575.29 655.92 449.78 641.89 449.78 641.89 575.29"/>
      <path class="cls-1" d="M655.92,575.29h15.25c.34.16,1.31.66,1.98,1.87.54.99.61,1.94.61,2.38.02,9.96.05,19.92.07,29.88-5.09,5.24-10.18,10.47-15.27,15.71.04,5.69.07,11.38.11,17.07-.87.95-1.75,1.91-2.62,2.86-4.64.03-9.27.05-13.91.08-.9-.98-1.8-1.96-2.7-2.94v-17.07c-5.1-5.24-10.21-10.47-15.31-15.71-.41-15.66-.37-27.19.04-29.88.08-.53.27-1.82,1.19-2.86.86-.98,1.97-1.28,2.66-1.39h27.91Z"/>
    </g>
  </g>
</svg>