<?xml version="1.0" encoding="UTF-8"?>
<svg id="Capa_1" data-name="Capa 1" xmlns="http://www.w3.org/2000/svg" xmlns:xlink="http://www.w3.org/1999/xlink" viewBox="0 0 1920 1080">
  <defs>
    <style>
      .cls-1 {
        letter-spacing: 0em;
      }

      .cls-2, .cls-3, .cls-4 {
        fill: #fff;
      }

      .cls-3 {
        font-size: 73.5px;
      }

      .cls-3, .cls-4 {
        font-family: Gotham-Bold, Gotham;
        font-weight: 700;
      }

      .cls-5 {
        letter-spacing: 0em;
      }

      .cls-6 {
        letter-spacing: -.02em;
      }

      .cls-4 {
        font-size: 184.83px;
      }

      .cls-7 {
        letter-spacing: .02em;
      }

      .cls-8 {
        fill: url(#Degradado_sin_nombre_8);
      }
    </style>
    <radialGradient id="Degradado_sin_nombre_8" data-name="Degradado sin nombre 8" cx="923" cy="543.55" fx="923" fy="543.55" r="149.17" gradientTransform="translate(-10564.55 -3103.7) scale(12 6.75)" gradientUnits="userSpaceOnUse">
      <stop offset=".1" stop-color="#0ebaba"/>
      <stop offset=".26" stop-color="#0eb0b7"/>
      <stop offset=".52" stop-color="#0f97b1"/>
      <stop offset=".62" stop-color="#0e90ae"/>
      <stop offset=".75" stop-color="#0d7fa7"/>
      <stop offset=".87" stop-color="#0d6b9f"/>
    </radialGradient>
  </defs>
  <rect id="Fondo" class="cls-8" width="1920" height="1080"/>
  <g id="Sarom_Construcciones" data-name="Sarom Construcciones">
    <text class="cls-3" transform="translate(859 658.48) scale(1.32 1)"><tspan class="cls-1" x="0" y="0">C</tspan><tspan class="cls-7" x="54.24" y="0">ON</tspan><tspan class="cls-5" x="177.72" y="0">S</tspan><tspan class="cls-7" x="225.12" y="0">TRUCTIONS</tspan></text>
    <text class="cls-4" transform="translate(847.17 581.86) scale(1.32 1)"><tspan class="cls-6" x="0" y="0">S</tspan><tspan x="115.52" y="0">AROM</tspan></text>
  </g>
  <g id="Sarom-Logo">
    <path id="Base_de_la_S" data-name="Base de la S" class="cls-2" d="M159.55,745.1c.08,41.74.17,83.48.25,125.22,12.28,2.73,27.79,5.88,45.82,8.84,24.41,4.01,42.97,5.95,54.47,7.13,17.64,1.81,39.47,3.59,64.65,4.56,21.32,1.2,43.93,1.76,67.71,1.43,24.27-.34,47.3-1.57,68.98-3.42,15.72-1.9,39.01-7.22,63.38-22.82,10.24-6.56,28.3-18.39,44.04-41.93,13.87-20.75,19.14-40.44,21.89-51.06,5.87-22.67,6.13-41.25,6.36-58.47.18-13.11.35-25.53-2.04-41.36-2.14-14.22-7.04-44.47-27.75-73.88-3.52-4.99-18.47-25.55-44.04-40.5-10.65-6.23-19.93-9.6-26.47-11.98-7.05-2.56-18.44-6.23-44.55-10.55-5.17-.86-19.65-3.18-44.8-5.7-16.05-1.61-28.45-2.5-58.29-5.42-7.98-.78-20.69-2.1-36.4-7.13-11.74-3.76-18.49-7.47-24.44-13.41-5.8-5.8-9.23-12.12-11.2-16.54-39.7-.19-79.39-.38-119.09-.57-.27,4.76-.35,11.23.41,18.83.28,2.8,1.27,12.27,5.41,25.39,2.44,7.75,7.44,23.21,18.84,40.22,2.08,3.11,12.15,17.87,29.78,31.95,16.27,12.99,30.84,18.91,39.96,22.53,10.27,4.08,20,6.33,39.45,10.84,12.54,2.9,24.26,5.62,39.71,7.86,13.08,1.9,11.68.97,50.65,4.41,2.62.23-.63-.05,44.29,5.7,7.13.91,13.96,1.79,22.4,5.7,5.23,2.43,13.59,6.31,20.62,15.12,15.22,19.07,11.54,45.33,10.44,51.63-.76,4.35-2.1,11.58-6.87,19.11-1.09,1.71-5.5,8.42-14.51,13.98-11.65,7.19-23.1,7.59-28,7.7-15.51.36-59.95,1.08-120.66.29-31.01-2.35-64.23-6.41-99.27-12.84-17.73-3.25-34.79-6.9-51.16-10.84Z"/>
    <g id="Gancho_Superior" data-name="Gancho Superior">
      <line class="cls-2" x1="404.11" y1="208.75" x2="759.45" y2="449.78"/>
      <path class="cls-2" d="M404.11,208.75l-172.84,109.25c-11.01,6.71-34.62,23.26-52.37,55.77-17.31,31.71-19.97,61.99-20.43,76.02h121.67c3.74-15.8,10.33-24.99,14.57-29.81,4.55-5.17,9.54-8.65,19.35-15.4,11.68-8.05,20.86-13.12,21.38-13.41,11.11-6.14,30.85-18.16,68.66-43.64,5.46,3.59,38.5,25.34,63.19,42.22,15.04,10.28,5.92,4.36,22.65,15.97,12.33,8.56,14.63,9.94,17.82,13.41,4.56,4.97,10.76,14.04,13.68,30.66h238l-355.35-241.03Z"/>
      <polyline class="cls-2" points="655.92 575.29 655.92 449.78 641.89 449.78 641.89 575.29"/>
      <path class="cls-2" d="M655.92,575.29h15.25c.34.16,1.31.66,1.98,1.87.54.99.61,1.94.61,2.38.02,9.96.05,19.92.07,29.88-5.09,5.24-10.18,10.47-15.27,15.71.04,5.69.07,11.38.11,17.07-.87.95-1.75,1.91-2.62,2.86-4.64.03-9.27.05-13.91.08-.9-.98-1.8-1.96-2.7-2.94v-17.07c-5.1-5.24-10.21-10.47-15.31-15.71-.41-15.66-.37-27.19.04-29.88.08-.53.27-1.82,1.19-2.86.86-.98,1.97-1.28,2.66-1.39h27.91Z"/>
    </g>
  </g>
</svg>