<?xml version="1.0" encoding="UTF-8"?>
<svg id="Capa_1" data-name="Capa 1" xmlns="http://www.w3.org/2000/svg" xmlns:xlink="http://www.w3.org/1999/xlink" viewBox="0 0 1980 600">
  <defs>
    <style>
      .cls-1 {
        font-size: 92.64px;
      }

      .cls-1, .cls-2, .cls-3 {
        fill: #fff;
      }

      .cls-1, .cls-3 {
        font-family: Gotham-Bold, Gotham;
        font-weight: 700;
      }

      .cls-4 {
        letter-spacing: 0em;
      }

      .cls-5 {
        letter-spacing: .02em;
      }

      .cls-6 {
        letter-spacing: 0em;
      }

      .cls-7 {
        letter-spacing: 0em;
      }

      .cls-3 {
        font-size: 232.97px;
      }

      .cls-8 {
        letter-spacing: -.02em;
      }

      .cls-9 {
        letter-spacing: .02em;
      }

      .cls-10 {
        fill: url(#Degradado_sin_nombre_996);
      }
    </style>
    <radialGradient id="Degradado_sin_nombre_996" data-name="Degradado sin nombre 996" cx="995" cy="299.96" fx="995" fy="299.96" r="115.61" gradientTransform="translate(-11302.29 -825.05) scale(12.38 3.75)" gradientUnits="userSpaceOnUse">
      <stop offset="0" stop-color="#34b9c8"/>
      <stop offset=".02" stop-color="#26b9c3"/>
      <stop offset=".06" stop-color="#18b9bd"/>
      <stop offset=".1" stop-color="#10b9ba"/>
      <stop offset=".17" stop-color="#0ebaba"/>
      <stop offset=".19" stop-color="#0eb7b9"/>
      <stop offset=".43" stop-color="#0e9fb3"/>
      <stop offset=".57" stop-color="#0f97b1"/>
      <stop offset=".68" stop-color="#0e86aa"/>
      <stop offset=".86" stop-color="#0d72a2"/>
      <stop offset=".98" stop-color="#0d6b9f"/>
    </radialGradient>
  </defs>
  <rect id="Fondo" class="cls-10" x="-.2" y="-.12" width="1980.38" height="600.56"/>
  <text class="cls-1" transform="translate(693.53 431.46) scale(1.36 1)"><tspan class="cls-6" x="0" y="0">C</tspan><tspan class="cls-5" x="68.37" y="0">ON</tspan><tspan class="cls-7" x="224" y="0">S</tspan><tspan class="cls-9" x="283.75" y="0">TRUCTIONS</tspan></text>
  <text class="cls-3" transform="translate(678.25 334.88) scale(1.36 1)"><tspan class="cls-8" x="0" y="0">S</tspan><tspan class="cls-4" x="145.61" y="0">AROM</tspan></text>
  <path id="Base_de_la_S" data-name="Base de la S" class="cls-2" d="M102.91,443.38c.08,31.14.16,62.28.23,93.42,11.22,2.03,25.4,4.39,41.89,6.6,22.32,2.99,39.29,4.44,49.8,5.32,16.13,1.35,36.09,2.68,59.11,3.4,19.49.89,40.17,1.31,61.9,1.06,22.18-.25,43.25-1.17,63.07-2.55,14.37-1.42,35.66-5.39,57.95-17.02,9.36-4.89,25.87-13.72,40.26-31.28,12.68-15.48,17.5-30.17,20.01-38.09,5.37-16.91,5.6-30.77,5.82-43.62.16-9.78.32-19.04-1.86-30.86-1.96-10.61-6.43-33.17-25.37-55.11-3.21-3.72-16.88-19.06-40.26-30.22-9.74-4.65-18.22-7.16-24.2-8.94-6.44-1.91-16.85-4.65-40.73-7.87-4.73-.64-17.97-2.37-40.96-4.26-14.67-1.2-26.01-1.86-53.29-4.04-7.29-.58-18.92-1.56-33.28-5.32-10.73-2.81-16.91-5.57-22.34-10-5.3-4.33-8.44-9.04-10.24-12.34-36.29-.14-72.59-.28-108.88-.43-.25,3.55-.32,8.38.38,14.04.26,2.09,1.16,9.15,4.94,18.94,2.23,5.78,6.8,17.32,17.22,30,1.91,2.32,11.11,13.33,27.23,23.83,14.87,9.69,28.19,14.11,36.54,16.81,9.39,3.04,18.28,4.72,36.07,8.09,11.46,2.17,22.18,4.19,36.3,5.86,11.95,1.41,10.68.72,46.31,3.29,2.39.17-.57-.04,40.49,4.26,6.52.68,12.77,1.33,20.48,4.26,4.79,1.81,12.42,4.71,18.85,11.28,13.91,14.22,10.55,33.82,9.54,38.52-.7,3.25-1.92,8.64-6.28,14.26-.99,1.28-5.03,6.28-13.26,10.43-10.65,5.36-21.12,5.66-25.6,5.75-14.18.27-54.81.81-110.31.21-28.35-1.76-58.72-4.78-90.76-9.58-16.21-2.42-31.81-5.15-46.78-8.09Z"/>
  <g id="Gancho_Superior" data-name="Gancho Superior">
    <line class="cls-2" x1="326.5" y1="43.25" x2="651.37" y2="223.06"/>
    <path class="cls-2" d="M326.5,43.25l-158.02,81.5c-10.06,5.01-31.66,17.35-47.88,41.6-15.83,23.66-18.26,46.25-18.68,56.71h111.24c3.42-11.79,9.45-18.64,13.32-22.24,4.16-3.86,8.72-6.45,17.69-11.49,10.68-6,19.07-9.79,19.55-10,10.15-4.58,28.21-13.55,62.78-32.56,4.99,2.68,35.2,18.9,57.77,31.49,13.75,7.67,5.41,3.25,20.71,11.92,11.27,6.38,13.38,7.41,16.29,10,4.17,3.71,9.83,10.47,12.51,22.88h217.59L326.5,43.25Z"/>
    <polyline class="cls-2" points="556.72 316.7 556.72 223.06 543.89 223.06 543.89 316.7"/>
    <path class="cls-2" d="M556.72,316.7h13.94c.31.12,1.2.49,1.81,1.39.5.74.55,1.45.56,1.77.02,7.43.04,14.86.07,22.29-4.65,3.91-9.31,7.81-13.96,11.72.03,4.25.07,8.49.1,12.74-.8.71-1.6,1.42-2.4,2.13-4.24.02-8.48.04-12.71.06-.82-.73-1.64-1.46-2.46-2.19v-12.74c-4.67-3.91-9.33-7.81-14-11.72-.37-11.68-.34-20.28.03-22.29.07-.4.25-1.36,1.08-2.13.79-.73,1.8-.95,2.43-1.03h25.51Z"/>
  </g>
</svg>