<?xml version="1.0" encoding="UTF-8"?>
<svg id="Sarom_Constructions" data-name="Sarom Constructions" xmlns="http://www.w3.org/2000/svg" xmlns:xlink="http://www.w3.org/1999/xlink" viewBox="0 0 160 160">
  <defs>
    <style>
      .cls-1 {
        font-size: 11.38px;
      }

      .cls-1, .cls-2, .cls-3 {
        fill: #fff;
      }

      .cls-1, .cls-3 {
        font-family: Gotham-Bold, Gotham;
        font-weight: 700;
      }

      .cls-4 {
        letter-spacing: -.01em;
      }

      .cls-5 {
        letter-spacing: .02em;
      }

      .cls-3 {
        font-size: 27.61px;
      }

      .cls-6 {
        letter-spacing: 0em;
      }

      .cls-7 {
        fill: url(#Degradado_sin_nombre_996);
      }
    </style>
    <radialGradient id="Degradado_sin_nombre_996" data-name="Degradado sin nombre 996" cx="85.12" cy="80.19" fx="85.12" fy="80.19" r="115.61" gradientTransform="translate(-3.25)" gradientUnits="userSpaceOnUse">
      <stop offset="0" stop-color="#34b9c8"/>
      <stop offset=".02" stop-color="#26b9c3"/>
      <stop offset=".06" stop-color="#18b9bd"/>
      <stop offset=".1" stop-color="#10b9ba"/>
      <stop offset=".17" stop-color="#0ebaba"/>
      <stop offset=".19" stop-color="#0eb7b9"/>
      <stop offset=".43" stop-color="#0e9fb3"/>
      <stop offset=".57" stop-color="#0f97b1"/>
      <stop offset=".68" stop-color="#0e86aa"/>
      <stop offset=".86" stop-color="#0d72a2"/>
      <stop offset=".98" stop-color="#0d6b9f"/>
    </radialGradient>
  </defs>
  <rect id="Fondo" class="cls-7" width="160" height="160"/>
  <text class="cls-1" transform="translate(26.46 129.24)"><tspan x="0" y="0">C</tspan><tspan class="cls-5" x="8.4" y="0">ON</tspan><tspan class="cls-6" x="27.51" y="0">S</tspan><tspan class="cls-5" x="34.85" y="0">TRUCTIONS</tspan></text>
  <text class="cls-3" transform="translate(26.71 119.04)"><tspan class="cls-4" x="0" y="0">S</tspan><tspan x="17.26" y="0">AROM</tspan></text>
  <path id="Base_de_la_S" data-name="Base de la S" class="cls-2" d="M45.3,80.49c.01,4.57.02,9.15.03,13.72,1.51.3,3.41.64,5.62.97,3,.44,5.28.65,6.69.78,2.17.2,4.85.39,7.94.5,2.62.13,5.39.19,8.31.16,2.98-.04,5.81-.17,8.47-.38,1.93-.21,4.79-.79,7.78-2.5,1.26-.72,3.47-2.01,5.41-4.59,1.7-2.27,2.35-4.43,2.69-5.59.72-2.48.75-4.52.78-6.41.02-1.44.04-2.8-.25-4.53-.26-1.56-.86-4.87-3.41-8.09-.43-.55-2.27-2.8-5.41-4.44-1.31-.68-2.45-1.05-3.25-1.31-.87-.28-2.26-.68-5.47-1.16-.64-.09-2.41-.35-5.5-.62-1.97-.18-3.49-.27-7.16-.59-.98-.09-2.54-.23-4.47-.78-1.44-.41-2.27-.82-3-1.47-.71-.64-1.13-1.33-1.38-1.81-4.87-.02-9.75-.04-14.62-.06-.03.52-.04,1.23.05,2.06.03.31.16,1.34.66,2.78.3.85.91,2.54,2.31,4.41.26.34,1.49,1.96,3.66,3.5,2,1.42,3.79,2.07,4.91,2.47,1.26.45,2.45.69,4.84,1.19,1.54.32,2.98.62,4.88.86,1.61.21,1.43.11,6.22.48.32.03-.08,0,5.44.62.88.1,1.71.2,2.75.62.64.27,1.67.69,2.53,1.66,1.87,2.09,1.42,4.97,1.28,5.66-.09.48-.26,1.27-.84,2.09-.13.19-.68.92-1.78,1.53-1.43.79-2.84.83-3.44.84-1.9.04-7.36.12-14.81.03-3.81-.26-7.88-.7-12.19-1.41-2.18-.36-4.27-.76-6.28-1.19Z"/>
  <g id="Gancho_Superior" data-name="Gancho Superior">
    <line class="cls-2" x1="75.33" y1="21.73" x2="118.95" y2="48.14"/>
    <path class="cls-2" d="M75.33,21.73l-21.22,11.97c-1.35.74-4.25,2.55-6.43,6.11-2.13,3.47-2.45,6.79-2.51,8.33h14.94c.46-1.73,1.27-2.74,1.79-3.27.56-.57,1.17-.95,2.37-1.69,1.43-.88,2.56-1.44,2.62-1.47,1.36-.67,3.79-1.99,8.43-4.78.67.39,4.73,2.78,7.76,4.62,1.85,1.13.73.48,2.78,1.75,1.51.94,1.8,1.09,2.19,1.47.56.54,1.32,1.54,1.68,3.36h29.22l-43.62-26.41Z"/>
    <polyline class="cls-2" points="106.24 61.89 106.24 48.14 104.52 48.14 104.52 61.89"/>
    <path class="cls-2" d="M106.24,61.89h1.87s.16.07.24.2c.07.11.07.21.08.26,0,1.09,0,2.18,0,3.27-.62.57-1.25,1.15-1.88,1.72,0,.62,0,1.25.01,1.87-.11.1-.21.21-.32.31-.57,0-1.14,0-1.71,0-.11-.11-.22-.21-.33-.32v-1.87c-.63-.57-1.25-1.15-1.88-1.72-.05-1.72-.05-2.98,0-3.27,0-.06.03-.2.15-.31.11-.11.24-.14.33-.15h3.43Z"/>
  </g>
</svg>